<?xml version="1.0" standalone="no"?><!DOCTYPE svg PUBLIC "-//W3C//DTD SVG 1.1//EN" "http://www.w3.org/Graphics/SVG/1.1/DTD/svg11.dtd"><svg t="1595602454873" class="icon" viewBox="0 0 1024 1024" version="1.1" xmlns="http://www.w3.org/2000/svg" p-id="1151" xmlns:xlink="http://www.w3.org/1999/xlink" width="200" height="200"><defs><style type="text/css"></style></defs><path d="M780.288 710.656h-532.48c-12.288 0-24.576-10.24-24.576-24.576V675.84c0-12.288 10.24-24.576 24.576-24.576h102.4c16.384 0 30.72-14.336 30.72-30.72 0-14.336-10.24-26.624-26.624-28.672H245.76c-45.056 0-81.92 38.912-81.92 83.968v12.288c0 47.104 36.864 83.968 83.968 83.968H778.24c12.288 0 24.576 10.24 24.576 24.576v8.192c0 12.288-10.24 24.576-24.576 24.576H339.968c-16.384 0-30.72 14.336-30.72 30.72s14.336 30.72 30.72 30.72h436.224c47.104 0 83.968-36.864 83.968-83.968v-12.288c2.048-43.008-32.768-81.92-79.872-83.968z" p-id="1152" data-spm-anchor-id="a313x.7781069.0.i5" class="selected" fill="#bfbfbf"></path><path d="M512 632.832c81.92 0 198.656-192.512 198.656-303.104 0-108.544-88.064-196.608-198.656-198.656-108.544 0-196.608 88.064-198.656 196.608 2.048 112.64 135.168 305.152 198.656 305.152z m0-405.504c55.296 0 100.352 45.056 100.352 100.352s-45.056 100.352-100.352 100.352-100.352-45.056-100.352-100.352 45.056-100.352 100.352-100.352z" p-id="1153" data-spm-anchor-id="a313x.7781069.0.i0" class="" fill="#f0d623"></path></svg>