<?xml version="1.0" standalone="no"?><!DOCTYPE svg PUBLIC "-//W3C//DTD SVG 1.1//EN" "http://www.w3.org/Graphics/SVG/1.1/DTD/svg11.dtd"><svg t="1592576921567" class="icon" viewBox="0 0 1024 1024" version="1.1" xmlns="http://www.w3.org/2000/svg" p-id="9056" xmlns:xlink="http://www.w3.org/1999/xlink" width="200" height="200"><defs><style type="text/css"></style></defs><path d="M650.504 954.676 374.371 954.676c-91.516 0-165.683-74.176-165.683-165.702l0-110.45c0-72.53 46.903-133.508 111.812-155.966-35.347-47.699-56.582-108.786-56.582-175.401C263.918 194.637 375.184 71 512.449 71 649.7 71 760.986 194.637 760.986 347.157c0 66.615-21.241 127.702-56.597 175.401 64.905 22.453 111.821 83.436 111.821 155.966l0 110.45C816.207 880.5 742.028 954.676 650.504 954.676L650.504 954.676zM705.755 347.157c0-122.028-86.559-220.931-193.306-220.931-106.769 0-193.306 98.902-193.306 220.931 0 122.007 86.537 220.909 193.306 220.909C619.196 568.065 705.755 469.164 705.755 347.157L705.755 347.157zM760.986 692.34c0-58.712-44.558-107.626-104.26-120.622-40.713 32.348-90.418 51.579-144.277 51.579-53.86 0-103.564-19.231-144.277-51.579-59.706 12.996-104.258 61.91-104.258 120.622l0 82.836c0 68.639 60.694 124.273 135.556 124.273l225.938 0c74.876 0 135.571-55.639 135.571-124.273L760.979 692.34 760.986 692.34zM760.986 692.34" p-id="9057" fill="#ffffff"></path><path d="M773.559 649.066" p-id="9058" fill="#ffffff"></path></svg>